<svg xmlns="http://www.w3.org/2000/svg" width="7px" height="8px" viewBox="0 0 7 8">
<g>
<path style="fill: #ffeb90;" d="M 6.851562 4.351562 C 7.046875 4.15625 7.046875 3.839844 6.851562 3.644531 L 4.351562 1.144531 C 4.15625 0.949219 3.839844 0.949219 3.644531 1.144531 C 3.449219 1.339844 3.449219 1.65625 3.644531 1.851562 L 5.292969 3.5 L 0.5 3.5 C 0.222656 3.5 0 3.722656 0 4 C 0 4.277344 0.222656 4.5 0.5 4.5 L 5.292969 4.5 L 3.648438 6.148438 C 3.453125 6.34375 3.453125 6.660156 3.648438 6.855469 C 3.84375 7.050781 4.160156 7.050781 4.355469 6.855469 L 6.855469 4.355469 Z M 6.851562 4.351562 "/>
</g>
</svg>
