<svg xmlns="http://www.w3.org/2000/svg" width="17px" height="20px" viewBox="0 0 17 19">
<g>
<path style=" fill: #fff;" d="M 16.644531 10.339844 C 17.117188 9.875 17.117188 9.121094 16.644531 8.65625 L 10.570312 2.71875 C 10.097656 2.257812 9.328125 2.257812 8.851562 2.71875 C 8.378906 3.183594 8.378906 3.9375 8.851562 4.402344 L 12.855469 8.3125 L 1.214844 8.3125 C 0.542969 8.3125 0 8.84375 0 9.5 C 0 10.15625 0.542969 10.6875 1.214844 10.6875 L 12.851562 10.6875 L 8.855469 14.597656 C 8.382812 15.0625 8.382812 15.816406 8.855469 16.28125 C 9.332031 16.742188 10.101562 16.742188 10.574219 16.28125 L 16.648438 10.34375 Z M 16.644531 10.339844 "/>
</g>
</svg>
