<svg xmlns="http://www.w3.org/2000/svg" width="18px" height="16px" viewBox="0 0 18 16">
<g>
<path style="fill: #ffea00;" d="M 7.914062 1.097656 C 8.105469 0.726562 7.960938 0.273438 7.597656 0.0859375 C 7.230469 -0.105469 6.773438 0.0390625 6.585938 0.402344 L 3.675781 6 L 1 6 C 0.445312 6 0 6.445312 0 7 C 0 7.554688 0.445312 8 1 8 L 2.621094 14.484375 C 2.84375 15.375 3.644531 16 4.5625 16 L 13.4375 16 C 14.355469 16 15.15625 15.375 15.378906 14.484375 L 17 8 C 17.554688 8 18 7.554688 18 7 C 18 6.445312 17.554688 6 17 6 L 14.324219 6 L 11.414062 0.402344 C 11.226562 0.0390625 10.773438 -0.105469 10.402344 0.0859375 C 10.035156 0.273438 9.894531 0.726562 10.085938 1.097656 L 12.632812 6 L 5.367188 6 Z M 6 9.5 L 6 12.5 C 6 12.773438 5.773438 13 5.5 13 C 5.226562 13 5 12.773438 5 12.5 L 5 9.5 C 5 9.226562 5.226562 9 5.5 9 C 5.773438 9 6 9.226562 6 9.5 Z M 9 9 C 9.273438 9 9.5 9.226562 9.5 9.5 L 9.5 12.5 C 9.5 12.773438 9.273438 13 9 13 C 8.726562 13 8.5 12.773438 8.5 12.5 L 8.5 9.5 C 8.5 9.226562 8.726562 9 9 9 Z M 13 9.5 L 13 12.5 C 13 12.773438 12.773438 13 12.5 13 C 12.226562 13 12 12.773438 12 12.5 L 12 9.5 C 12 9.226562 12.226562 9 12.5 9 C 12.773438 9 13 9.226562 13 9.5 Z M 13 9.5 "/>
</g>
</svg>
