<svg xmlns="http://www.w3.org/2000/svg" width="11px" height="13px" viewBox="0 0 11 12">
<g>
<path style=" fill: #c5c3c2;" d="M 3.730469 1.5 L 7.269531 1.5 L 7.269531 0.5625 C 7.269531 0.25 7.53125 0 7.855469 0 C 8.183594 0 8.445312 0.25 8.445312 0.5625 L 8.445312 1.5 L 9.429688 1.5 C 10.296875 1.5 11 2.171875 11 3 L 11 10.5 C 11 11.328125 10.296875 12 9.429688 12 L 1.570312 12 C 0.703125 12 0 11.328125 0 10.5 L 0 3 C 0 2.171875 0.703125 1.5 1.570312 1.5 L 2.554688 1.5 L 2.554688 0.5625 C 2.554688 0.25 2.816406 0 3.144531 0 C 3.46875 0 3.730469 0.25 3.730469 0.5625 Z M 1.179688 10.5 C 1.179688 10.707031 1.355469 10.875 1.570312 10.875 L 9.429688 10.875 C 9.644531 10.875 9.820312 10.707031 9.820312 10.5 L 9.820312 4.5 L 1.179688 4.5 Z M 1.179688 10.5 "/>
</g>
</svg>
