<svg xmlns="http://www.w3.org/2000/svg" width="13px" height="13px" viewBox="0 0 13 13">
<g>
<path style=" fill: #c5c3c2;" d="M 6.5 0.8125 C 2.910156 0.8125 0 3.175781 0 6.09375 C 0 7.304688 0.507812 8.410156 1.34375 9.296875 C 0.964844 10.300781 0.179688 11.148438 0.167969 11.15625 C 0 11.335938 -0.046875 11.597656 0.0507812 11.816406 C 0.148438 12.039062 0.363281 12.1875 0.609375 12.1875 C 2.171875 12.1875 3.378906 11.535156 4.140625 11.011719 C 4.851562 11.242188 5.667969 11.375 6.5 11.375 C 10.089844 11.375 12.976562 9.011719 12.976562 6.09375 C 12.976562 3.175781 10.089844 0.8125 6.5 0.8125 Z M 6.503906 10.15625 C 5.824219 10.15625 5.152344 10.050781 4.511719 9.847656 L 3.933594 9.667969 L 3.441406 10.015625 C 3.078125 10.273438 2.578125 10.558594 1.980469 10.753906 C 2.167969 10.445312 2.34375 10.097656 2.484375 9.730469 L 2.753906 9.019531 L 2.230469 8.464844 C 1.773438 7.976562 1.21875 7.164062 1.21875 6.09375 C 1.21875 3.851562 3.589844 2.03125 6.5 2.03125 C 9.414062 2.03125 11.78125 3.851562 11.78125 6.09375 C 11.78125 8.335938 9.414062 10.15625 6.503906 10.15625 Z M 6.503906 10.15625 "/>
</g>
</svg>
