<?xml version="1.0" encoding="UTF-8"?>
<svg xmlns="http://www.w3.org/2000/svg" width="24px" height="px" viewBox="0 0 24 24" version="1.1">
<g>
<path style="fill: #fff;" d="M 23.625 12 C 23.625 5.578125 18.421875 0.375 12 0.375 C 5.578125 0.375 0.375 5.578125 0.375 12 C 0.375 17.800781 4.625 22.613281 10.183594 23.484375 L 10.183594 15.359375 L 7.230469 15.359375 L 7.230469 12 L 10.183594 12 L 10.183594 9.4375 C 10.183594 6.527344 11.917969 4.917969 14.574219 4.917969 C 15.847656 4.917969 17.175781 5.144531 17.175781 5.144531 L 17.175781 8.003906 L 15.710938 8.003906 C 14.265625 8.003906 13.816406 8.898438 13.816406 9.816406 L 13.816406 12 L 17.039062 12 L 16.523438 15.359375 L 13.816406 15.359375 L 13.816406 23.484375 C 19.375 22.613281 23.625 17.800781 23.625 12 Z M 23.625 12 "/>
</g>
</svg>
