<svg xmlns="http://www.w3.org/2000/svg" width="24px" height="27px" viewBox="0 0 24 27"><g><path style="fill:#fff;" d="M 21.429688 1.6875 L 2.570312 1.6875 C 1.152344 1.6875 0 2.820312 0 4.21875 L 0 22.78125 C 0 24.179688 1.152344 25.3125 2.570312 25.3125 L 21.429688 25.3125 C 22.847656 25.3125 24 24.179688 24 22.78125 L 24 4.21875 C 24 2.820312 22.847656 1.6875 21.429688 1.6875 Z M 7.742188 16.820312 C 5.859375 16.820312 4.339844 15.324219 4.339844 13.472656 C 4.339844 11.621094 5.859375 10.125 7.742188 10.125 C 9.621094 10.125 11.144531 11.621094 11.144531 13.472656 C 11.144531 15.324219 9.621094 16.820312 7.742188 16.820312 Z M 16.257812 16.820312 C 14.378906 16.820312 12.855469 15.324219 12.855469 13.472656 C 12.855469 11.621094 14.378906 10.125 16.257812 10.125 C 18.140625 10.125 19.660156 11.621094 19.660156 13.472656 C 19.660156 15.324219 18.140625 16.820312 16.257812 16.820312 Z M 16.257812 16.820312 "/></g></svg>
