<svg xmlns="http://www.w3.org/2000/svg" width="24px" height="px" viewBox="0 0 24 24">
<g>
<path style="fill: #fff;" d="M 24 12 C 24 18.421875 18.628906 23.625 12 23.625 C 10.761719 23.625 9.570312 23.441406 8.449219 23.105469 C 8.9375 22.332031 9.667969 21.066406 9.9375 20.058594 C 10.082031 19.515625 10.683594 17.292969 10.683594 17.292969 C 11.074219 18.015625 12.21875 18.628906 13.433594 18.628906 C 17.050781 18.628906 19.660156 15.402344 19.660156 11.394531 C 19.660156 7.554688 16.421875 4.683594 12.261719 4.683594 C 7.082031 4.683594 4.332031 8.046875 4.332031 11.71875 C 4.332031 13.425781 5.269531 15.546875 6.765625 16.222656 C 6.992188 16.328125 7.113281 16.28125 7.167969 16.070312 C 7.203125 15.910156 7.40625 15.117188 7.5 14.75 C 7.527344 14.632812 7.515625 14.53125 7.417969 14.417969 C 6.929688 13.832031 6.53125 12.765625 6.53125 11.765625 C 6.53125 9.203125 8.535156 6.722656 11.953125 6.722656 C 14.898438 6.722656 16.964844 8.667969 16.964844 11.453125 C 16.964844 14.597656 15.324219 16.777344 13.191406 16.777344 C 12.015625 16.777344 11.128906 15.835938 11.414062 14.675781 C 11.753906 13.292969 12.40625 11.804688 12.40625 10.804688 C 12.40625 9.914062 11.914062 9.167969 10.886719 9.167969 C 9.683594 9.167969 8.714844 10.375 8.714844 11.992188 C 8.714844 13.023438 9.074219 13.714844 9.074219 13.714844 C 9.074219 13.714844 7.886719 18.582031 7.667969 19.492188 C 7.425781 20.492188 7.523438 21.910156 7.625 22.828125 C 3.164062 21.136719 0 16.925781 0 12 C 0 5.578125 5.371094 0.375 12 0.375 C 18.628906 0.375 24 5.578125 24 12 Z M 24 12 "/>
</g>
</svg>
