<svg xmlns="http://www.w3.org/2000/svg" width="9px" height="12px" viewBox="0 0 9 12" >
	<g>
		<path style=" fill: #c5c3c2" d="M 5.054688 11.699219 C 6.257812 10.195312 9 6.546875 9 4.5 C 9 2.015625 6.984375 0 4.5 0 C 2.015625 0 0 2.015625 0 4.5 C 0 6.546875 2.742188 10.195312 3.945312 11.699219 C 4.234375 12.058594 4.765625 12.058594 5.054688 11.699219 Z M 4.5 6 C 3.671875 6 3 5.328125 3 4.5 C 3 3.671875 3.671875 3 4.5 3 C 5.328125 3 6 3.671875 6 4.5 C 6 5.328125 5.328125 6 4.5 6 Z M 4.5 6 "/>
	</g>
</svg>