<svg xmlns="http://www.w3.org/2000/svg" width="25px" height="25px" viewBox="0 0 25 25">
<g>
<path style="fill: #ffeb90" d="M 20.3125 10.15625 C 20.3125 12.398438 19.585938 14.46875 18.359375 16.148438 L 24.539062 22.335938 C 25.152344 22.945312 25.152344 23.9375 24.539062 24.546875 C 23.929688 25.15625 22.9375 25.15625 22.328125 24.546875 L 16.148438 18.359375 C 14.46875 19.589844 12.398438 20.3125 10.15625 20.3125 C 4.546875 20.3125 0 15.765625 0 10.15625 C 0 4.546875 4.546875 0 10.15625 0 C 15.765625 0 20.3125 4.546875 20.3125 10.15625 Z M 10.15625 17.1875 C 14.039062 17.1875 17.1875 14.039062 17.1875 10.15625 C 17.1875 6.273438 14.039062 3.125 10.15625 3.125 C 6.273438 3.125 3.125 6.273438 3.125 10.15625 C 3.125 14.039062 6.273438 17.1875 10.15625 17.1875 Z M 10.15625 17.1875 "/>
</g>
</svg>
